<svg xmlns="http://www.w3.org/2000/svg" viewBox="0 0 512 512">
  <path fill="#324d5b" d="M256 0a256 256 0 100 512 256 256 0 000-512z"/>
  <path fill="#e2574c" d="M256 343a31 31 0 100 61 31 31 0 000-61zm82-20a31 31 0 100 61 31 31 0 000-61zm-164 0a31 31 0 100 61 31 31 0 000-61z"/>
  <path fill="#e4e7e7" d="M162 244c52-32 136-32 188 0s52 84 0 116-136 32-188 0-52-84 0-116z"/>
  <path fill="#cdcfcf" d="M177 350c-48-30-51-76-11-108l-4 2c-52 32-52 84 0 116s136 32 188 0l11-8c-52 30-133 29-184-2z"/>
  <path fill="#e2574c" d="M140 187c64-38 168-38 232 0s64 100 0 138-168 38-232 0-64-100 0-138z"/>
  <path fill="#e4e7e7" d="M256 108c57 0 102 45 102 102 0 56-45 82-102 82s-102-26-102-82c0-57 45-102 102-102z"/>
  <path fill="#3db39e" d="M256 292c23 0 44-4 61-13v-69a61 61 0 00-122 0v69c17 9 38 13 61 13z"/>
  <path fill="#cdcfcf" d="M164 210c0-55 43-100 97-102h-5c-57 0-102 45-102 102 0 56 45 82 102 82h5c-54-2-97-27-97-82z"/>
  <path fill="#37a18e" d="M205 210c0-32 25-59 56-61l-5-1c-34 0-61 28-61 62v69a92 92 0 009 4h1l17 5 2 1 5 1h4a146 146 0 0010 1l3 1h15c-21-1-40-5-56-13v-69z"/>
  <path fill="#cb4e44" d="M382 315c-64 38-168 38-232 0-51-31-61-77-30-114-43 38-36 90 20 124 64 38 168 38 232 0 12-8 22-16 30-25l-20 15z"/>
  <path fill="#7a8b94" d="M87 138c15-1 24-10 26-25 1 15 10 24 25 25-15 2-24 10-25 26-2-16-11-24-26-26z"/>
  <path fill="#efc75e" d="M404 87c28-3 43-18 47-46 3 28 18 43 46 46-28 3-43 18-46 46-4-28-19-43-47-46z"/>
  <path fill="#5b717c" d="M445 297c-1 15-10 24-25 26 15 1 24 10 25 25 2-15 11-24 26-25-15-2-24-11-26-26zM82 333c-1 12-8 19-21 20 13 2 20 8 21 21 1-13 8-19 20-21-12-1-19-8-20-20z"/>
  <path fill="#fff" d="M256 189a31 31 0 110 62 31 31 0 010-62z"/>
  <path fill="#324d5b" d="M256 205a15 15 0 110 31 15 15 0 010-31z"/>
</svg>
